<svg width="277" height="250" viewBox="0 0 277 250" fill="none" xmlns="http://www.w3.org/2000/svg">
<path d="M110.597 10.2501C119.008 4.13862 130.399 4.13861 138.81 10.2501L229.197 75.9196C237.609 82.0311 241.128 92.8639 237.915 102.752L203.391 209.008C200.178 218.897 190.963 225.592 180.565 225.592L68.8417 225.592C58.4442 225.592 49.2293 218.897 46.0163 209.008L11.4918 102.752C8.27878 92.8639 11.7986 82.0311 20.2103 75.9196L110.597 10.2501Z" fill="#C39CFF"/>
<path d="M133.142 87.324C130.473 91.2716 124.688 91.1191 122.126 87.154C119.96 83.8016 114.57 86.9181 116.752 90.2953C121.932 98.3111 133.199 98.3308 138.517 90.4653C140.766 87.1381 135.376 84.0199 133.142 87.324Z" fill="black"/>
<path d="M100.35 76.8463C103.017 76.2164 104.669 73.5434 104.039 70.876C103.409 68.2085 100.736 66.5567 98.0687 67.1866C95.4013 67.8164 93.7495 70.4895 94.3794 73.1569C95.0092 75.8243 97.6822 77.4761 100.35 76.8463Z" fill="black"/>
<path d="M154.673 75.5238C156.611 73.5857 156.611 70.4434 154.673 68.5053C152.735 66.5672 149.592 66.5672 147.654 68.5053C145.716 70.4434 145.716 73.5857 147.654 75.5238C149.592 77.4619 152.735 77.4619 154.673 75.5238Z" fill="black"/>
<path d="M111.615 157.357C111.632 158.684 111.685 160.12 112.48 161.15C113.216 162.103 114.42 162.486 115.561 162.76C121.068 164.084 126.784 164.032 132.437 163.973C133.709 163.96 135.037 163.933 136.166 163.314C138.461 162.056 139.055 158.95 139.314 156.251C140.125 147.778 140.191 139.251 140.257 130.738C140.28 127.738 140.303 124.73 140.014 121.746C139.914 120.714 139.763 119.647 139.215 118.785C138.196 117.179 136.156 116.753 134.328 116.519C128.938 115.829 123.493 115.603 118.065 115.846C116.82 115.902 115.542 115.99 114.407 116.534C111.41 117.969 111.785 121.269 111.69 124.146C111.567 127.855 111.503 131.566 111.475 135.277C111.422 142.637 111.518 149.998 111.615 157.357Z" stroke="#333333" stroke-width="7"/>
<path d="M120.744 157.924C123.645 157.924 126.545 157.924 129.445 157.924" stroke="#333333" stroke-width="7" stroke-miterlimit="10" stroke-linecap="round" stroke-linejoin="round"/>
<path d="M191.233 98.2391C191.23 98.2624 190.559 102.797 188.413 111.964C187.302 116.711 184.668 121.241 182.135 125.522C179.602 129.804 176.871 133.595 173.823 137.23C170.776 140.866 167.495 144.231 163.981 147.289C160.466 150.347 156.818 152.996 153.153 155.105C149.487 157.214 145.915 158.703 143.553 159.618C141.191 160.533 140.146 160.829 138.776 161.166" stroke="black" stroke-width="6" stroke-linecap="round"/>
<path d="M58.1745 98.243C58.1775 98.2663 58.8476 102.801 60.9939 111.968C62.1051 116.715 64.7386 121.245 67.272 125.526C69.8053 129.807 72.5364 133.598 75.5838 137.234C78.6311 140.869 81.912 144.235 85.4263 147.293C88.9406 150.351 92.5891 153 96.2545 155.109C99.9199 157.218 103.492 158.707 105.854 159.622C108.216 160.537 109.261 160.833 110.631 161.17" stroke="black" stroke-width="6" stroke-linecap="round"/>
</svg>
