<svg width="281" height="264" viewBox="0 0 281 264" fill="none" xmlns="http://www.w3.org/2000/svg">
<path d="M265.619 81.9251C265.615 81.9577 264.676 88.3111 261.669 101.157C260.112 107.807 256.421 114.155 252.872 120.154C249.322 126.153 245.495 131.465 241.225 136.559C236.955 141.653 232.358 146.368 227.434 150.653C222.51 154.938 217.398 158.649 212.262 161.605C207.126 164.56 202.121 166.646 198.811 167.928C195.501 169.211 194.037 169.625 192.118 170.098" stroke="black" stroke-width="6" stroke-linecap="round"/>
<path d="M267.085 85.8203C267.207 85.8397 268.528 84.8726 271.003 82.7345C272.22 81.5734 273.357 80.2581 274.319 79.1075C275.281 77.9569 276.034 77.011 277.647 75.0881" stroke="black" stroke-width="6" stroke-linecap="round"/>
<path d="M268.738 68.1428C268.727 68.2277 268.716 68.3125 268.455 70.3112C268.195 72.3098 267.685 76.2198 265.624 82.0333" stroke="black" stroke-width="6" stroke-linecap="round"/>
<path d="M263.521 85.0878C263.483 85.0396 263.444 84.9914 263.04 84.2714C262.636 83.5514 261.868 82.161 261.233 80.7736C260.598 79.3862 260.12 78.0438 258.276 73.8736" stroke="black" stroke-width="6" stroke-linecap="round"/>
<path d="M110.597 253.118C119.008 259.23 130.399 259.23 138.81 253.118L229.197 187.449C237.609 181.337 241.128 170.504 237.915 160.616L203.391 54.3602C200.178 44.4717 190.963 37.7766 180.565 37.7766L68.8417 37.7766C58.4442 37.7766 49.2293 44.4717 46.0163 54.3602L11.4918 160.616C8.27878 170.504 11.7986 181.337 20.2103 187.449L110.597 253.118Z" fill="#AADEE9"/>
<path d="M67.426 83.408C65.9457 82.5816 65.747 80.9355 66.3203 79.4948C66.4876 79.0752 66.6593 78.6578 66.8342 78.2419C64.1539 77.9884 61.4534 78.0507 58.8009 78.4613C43.1257 78.9112 28.582 89.4191 22.8901 103.976C17.1889 118.557 21.8227 135.76 32.9862 146.477C44.1903 157.233 61.228 159.619 75.351 153.506C82.6834 150.332 88.7857 145.242 93.0539 138.462C97.9836 130.632 100.372 121 99.5263 111.775C98.6492 102.213 94.3293 92.8573 86.8879 86.6362C82.792 83.2122 77.8547 80.6708 72.6328 79.2842C72.1806 80.2798 71.7449 81.2839 71.3396 82.302C70.7614 83.7542 68.6427 84.0872 67.426 83.408ZM93.2509 108.389C96.3479 123.056 89.4404 139.421 76.2499 146.713C65.0402 152.91 50.2801 152.73 39.9126 144.866C29.5704 137.022 23.9474 122.936 26.9397 110.185C30.3409 95.6915 44.1618 84.6251 58.9832 84.2087C59.2747 84.2007 59.5396 84.1537 59.7834 84.0809C67.3344 82.7517 75.9905 85.4709 82.0109 90.0602C87.888 94.5399 91.7355 101.212 93.2509 108.389Z" fill="black"/>
<path d="M65.9658 79.1688C65.3361 80.8049 65.5825 82.6634 67.2668 83.5784C68.651 84.3307 71.0416 83.9264 71.6762 82.2778C72.1213 81.1213 72.6008 79.9808 73.099 78.8493C76.5953 70.9108 81.3766 63.6069 87.172 57.2441C97.0275 46.4239 109.801 38.3208 124.123 34.4399C148.263 27.8985 176.635 33.2776 195.078 50.6953C204.339 59.4419 210.861 71.1992 210.44 84.1958C210.413 85.0462 210.663 85.7094 211.076 86.1965C211.837 87.0945 213.157 87.3818 214.354 87.0858C215.696 86.7541 216.88 85.6943 216.937 83.9392C217.804 57.1713 194.158 36.8981 170.635 29.3252C144.016 20.7553 114.049 26.0418 92.2374 43.581C87.7708 47.173 83.6595 51.1896 79.9817 55.5637C74.397 62.2061 69.8165 69.6754 66.531 77.7454C66.3383 78.2179 66.1492 78.6922 65.9658 79.1688Z" fill="black"/>
<path d="M81.506 149.622C84.4682 151.712 88.8962 158.147 100.581 164.349C112.265 170.552 113.439 170.21 119.246 172.047C125.052 173.885 129.291 174.657 131.56 174.727C132.65 174.738 133.615 174.701 135.34 174.283" stroke="black" stroke-width="6" stroke-linecap="round" stroke-linejoin="round"/>
<path d="M178.308 134.489C175.639 138.437 169.854 138.285 167.292 134.319C165.126 130.967 159.736 134.084 161.918 137.461C167.098 145.476 178.365 145.496 183.683 137.631C185.932 134.304 180.542 131.185 178.308 134.489Z" fill="black"/>
<path d="M145.516 124.012C148.183 123.382 149.835 120.709 149.205 118.041C148.575 115.374 145.902 113.722 143.235 114.352C140.567 114.982 138.915 117.655 139.545 120.322C140.175 122.99 142.848 124.642 145.516 124.012Z" fill="black"/>
<path d="M199.839 122.69C201.777 120.752 201.777 117.61 199.839 115.672C197.901 113.734 194.758 113.734 192.82 115.672C190.882 117.61 190.882 120.752 192.82 122.69C194.758 124.628 197.901 124.628 199.839 122.69Z" fill="black"/>
</svg>
