<svg width="281" height="264" viewBox="0 0 281 264" fill="none" xmlns="http://www.w3.org/2000/svg">
<path d="M110.597 253.117C119.008 259.229 130.399 259.229 138.81 253.117L229.197 187.448C237.609 181.336 241.128 170.503 237.915 160.615L203.391 54.3593C200.178 44.4708 190.963 37.7757 180.565 37.7757L68.8417 37.7757C58.4442 37.7757 49.2293 44.4707 46.0163 54.3593L11.4918 160.615C8.27878 170.503 11.7986 181.336 20.2103 187.448L110.597 253.117Z" fill="#AADEE9"/>
<path d="M67.4263 83.408C65.946 82.5817 65.7472 80.9355 66.3205 79.4948C66.4878 79.0752 66.6595 78.6579 66.8345 78.2419C64.1542 77.9885 61.4537 78.0508 58.8011 78.4614C43.1259 78.9112 28.5823 89.4192 22.8903 103.976C17.1892 118.557 21.823 135.76 32.9865 146.477C44.1906 157.233 61.2282 159.619 75.3512 153.506C82.6836 150.332 88.786 145.242 93.0541 138.463C97.9838 130.633 100.373 121 99.5265 111.775C98.6494 102.213 94.3295 92.8574 86.8882 86.6363C82.7922 83.2123 77.855 80.6709 72.633 79.2842C72.1808 80.2799 71.7451 81.284 71.3398 82.3021C70.7616 83.7542 68.643 84.0872 67.4263 83.408ZM93.2512 108.389C96.3481 123.056 89.4407 139.421 76.2501 146.713C65.0404 152.91 50.2803 152.73 39.9129 144.866C29.5707 137.022 23.9476 122.936 26.94 110.185C30.3411 95.6915 44.162 84.6252 58.9835 84.2088C59.275 84.2007 59.5398 84.1537 59.7837 84.081C67.3346 82.7518 75.9907 85.4709 82.0112 90.0603C87.8883 94.54 91.7358 101.212 93.2512 108.389Z" fill="black"/>
<path d="M65.9658 79.1679C65.3361 80.804 65.5825 82.6624 67.2668 83.5774C68.651 84.3298 71.0416 83.9254 71.6762 82.2769C72.1213 81.1204 72.6008 79.9798 73.099 78.8484C76.5953 70.9098 81.3766 63.6059 87.172 57.2432C97.0275 46.423 109.801 38.3199 124.123 34.439C148.263 27.8976 176.635 33.2766 195.078 50.6944C204.339 59.4409 210.861 71.1983 210.44 84.1949C210.413 85.0452 210.663 85.7085 211.076 86.1956C211.837 87.0936 213.157 87.3808 214.354 87.0849C215.696 86.7532 216.88 85.6934 216.937 83.9383C217.804 57.1704 194.158 36.8972 170.635 29.3243C144.016 20.7544 114.049 26.0409 92.2374 43.5801C87.7708 47.1721 83.6595 51.1887 79.9817 55.5627C74.397 62.2052 69.8165 69.6745 66.531 77.7445C66.3383 78.217 66.1492 78.6913 65.9658 79.1679Z" fill="black"/>
<path d="M81.506 149.622C84.4682 151.712 88.8962 158.147 100.581 164.349C112.265 170.552 113.439 170.21 119.246 172.047C125.052 173.885 129.291 174.657 131.56 174.727C132.65 174.739 133.615 174.701 135.34 174.283" stroke="black" stroke-width="6" stroke-linecap="round" stroke-linejoin="round"/>
<path d="M178.308 134.489C175.639 138.436 169.854 138.284 167.292 134.319C165.126 130.966 159.735 134.083 161.918 137.46C167.098 145.476 178.365 145.495 183.683 137.63C185.932 134.303 180.542 131.184 178.308 134.489Z" fill="black"/>
<path d="M145.516 124.011C148.183 123.381 149.835 120.708 149.205 118.04C148.575 115.373 145.902 113.721 143.235 114.351C140.567 114.981 138.915 117.654 139.545 120.321C140.175 122.989 142.848 124.641 145.516 124.011Z" fill="black"/>
<path d="M199.839 122.689C201.777 120.751 201.777 117.609 199.839 115.671C197.901 113.733 194.758 113.733 192.82 115.671C190.882 117.609 190.882 120.751 192.82 122.689C194.758 124.627 197.901 124.627 199.839 122.689Z" fill="black"/>
</svg>
