<svg width="52" height="47" viewBox="0 0 52 47" fill="none" xmlns="http://www.w3.org/2000/svg">
<path d="M39.397 36.8643C39.3844 36.8606 36.9385 36.1013 32.0614 34.1292C29.5363 33.1082 27.2613 31.2653 25.115 29.4991C22.9688 27.7328 21.1103 25.8995 19.3648 23.9049C17.6192 21.9103 16.043 19.8101 14.6564 17.6072C13.2698 15.4044 12.1206 13.1627 11.2709 10.9579C10.4212 8.75315 9.90575 6.65326 9.60339 5.27047C9.30103 3.88768 9.22738 3.28561 9.15857 2.50032" stroke="black" stroke-width="5" stroke-linecap="round"/>
<path d="M36.69 38.5049C36.6554 38.5396 36.6589 39.1924 36.7708 40.4918C36.8613 41.1563 37.0204 41.8312 37.167 42.411C37.3137 42.9908 37.4433 43.4551 37.6871 44.426" stroke="black" stroke-width="4" stroke-linecap="round"/>
<path d="M43.7953 39.4824C43.7625 39.4729 43.7298 39.4633 42.9582 39.2382C42.1867 39.0131 40.6773 38.5726 38.5129 37.4044" stroke="black" stroke-width="4" stroke-linecap="round"/>
<path d="M39.3641 35.7493C39.3814 35.732 39.3988 35.7146 39.6656 35.5218C39.9325 35.329 40.4483 34.9612 40.969 34.6465C41.4898 34.3319 41.9998 34.0815 43.5679 33.1611" stroke="black" stroke-width="4" stroke-linecap="round"/>
</svg>
