<svg width="50" height="34" viewBox="0 0 50 34" fill="none" xmlns="http://www.w3.org/2000/svg">
<path d="M31.1513 24.3879C29.4739 28.4584 23.6216 29.2972 21.5382 25.0138C21.0167 23.9416 19.918 23.2549 18.7179 23.694C17.6916 24.0697 16.8809 25.4511 17.4053 26.5297C19.114 30.0428 22.4698 32.3708 26.4239 32.3427C30.1818 32.3161 33.6952 29.752 35.116 26.3042C36.1975 23.6797 32.2365 21.7549 31.1513 24.3879Z" fill="#333333"/>
<path d="M7.98666 7.9818C9.45695 6.51245 9.45692 4.13017 7.98662 2.66082C6.51633 1.19147 4.13251 1.19143 2.66222 2.66078C1.19192 4.13013 1.19192 6.51245 2.66222 7.9818C4.13251 9.45114 6.51636 9.45114 7.98666 7.9818Z" fill="#333333"/>
<path d="M48.6903 6.57814C49.3656 4.61401 48.33 2.4716 46.3772 1.79291C44.4245 1.11422 42.294 2.15624 41.6187 4.12037C40.9434 6.0845 41.979 8.22695 43.9318 8.90564C45.8845 9.58433 48.015 8.54226 48.6903 6.57814Z" fill="#333333"/>
</svg>
