<svg width="300" height="1148" viewBox="0 0 300 1148" fill="none" xmlns="http://www.w3.org/2000/svg">
<path d="M112.083 918.722C128.906 906.499 151.687 906.499 168.51 918.722L230.683 963.893C247.506 976.116 254.546 997.782 248.12 1017.56L224.372 1090.65C217.946 1110.42 199.516 1123.81 178.721 1123.81H101.872C81.0769 1123.81 62.647 1110.42 56.221 1090.65L32.4731 1017.56C26.0472 997.782 33.0867 976.116 49.9101 963.893L112.083 918.722Z" fill="#7AB0F3"/>
<path d="M24.0875 1025.48C22.0699 1040.33 30.1535 1056.15 43.8412 1062.46C45.1176 1063.04 46.4327 1063.55 47.7725 1063.98L49.3238 1068.75L49.8819 1070.47C48.3144 1070.13 46.7608 1069.7 45.2336 1069.17C37.6891 1066.54 31.2314 1061.9 26.4797 1055.46C20.9914 1048.01 17.9059 1038.57 18.0762 1029.31C18.2525 1019.71 21.8781 1010.06 28.8454 1003.32C28.8685 1003.29 28.8922 1003.27 28.9153 1003.25C29.1896 1005.56 29.6628 1007.9 30.3439 1010.25C26.9508 1014.64 24.8371 1019.96 24.0875 1025.48Z" fill="black"/>
<path d="M204.669 985.991C206.304 985.541 206.89 983.99 206.677 982.455C206.614 982.007 206.547 981.561 206.477 981.115C209.14 981.509 211.748 982.214 214.226 983.246C229.34 987.425 240.955 1001.1 243.008 1016.6C245.063 1032.12 236.457 1047.71 223.058 1055.46C209.61 1063.23 192.495 1061.48 180.24 1052.17C173.877 1047.34 169.166 1040.94 166.64 1033.34C163.722 1024.56 163.701 1014.63 166.725 1005.88C169.859 996.799 176.288 988.745 184.999 984.48C189.794 982.133 195.195 980.843 200.597 980.743C200.798 981.818 200.982 982.897 201.132 983.982C201.347 985.531 203.325 986.36 204.669 985.991ZM173.627 1004.09C167.119 1017.59 169.92 1035.13 180.989 1045.36C190.395 1054.05 204.771 1057.4 216.716 1052.24C228.632 1047.09 237.455 1034.75 237.593 1021.66C237.75 1006.77 226.97 992.726 212.676 988.784C212.395 988.706 212.149 988.597 211.93 988.468C204.915 985.375 195.86 985.949 188.918 988.969C182.141 991.916 176.812 997.477 173.627 1004.09Z" fill="black"/>
<path d="M207.171 982.113C207.412 983.849 206.749 985.603 204.901 986.111C203.382 986.528 201.146 985.591 200.903 983.841C200.733 982.613 200.525 981.394 200.298 980.179C198.699 971.653 195.705 963.452 191.51 955.938C184.375 943.159 173.78 932.362 160.717 925.324C138.699 913.461 109.847 912.244 87.9246 925.008C76.9161 931.418 67.8896 941.383 65.3424 954.134C65.1757 954.969 64.781 955.557 64.2683 955.938C63.3229 956.639 61.9721 956.618 60.8732 956.058C59.6422 955.429 58.7303 954.128 59.0744 952.406C64.3213 926.143 91.96 911.782 116.588 909.76C144.459 907.472 172.437 919.438 189.686 941.481C193.218 945.995 196.308 950.841 198.894 955.938C202.821 963.677 205.581 971.992 206.944 980.598C207.025 981.102 207.101 981.607 207.171 982.113Z" fill="black"/>
<path d="M171.74 1039.92C168.38 1041.28 162.604 1046.54 149.815 1049.92C137.026 1053.3 135.96 1052.7 129.888 1053.17C123.816 1053.64 119.513 1053.43 117.287 1052.98C116.223 1052.74 115.292 1052.48 113.707 1051.69" stroke="black" stroke-width="6" stroke-linecap="round" stroke-linejoin="round"/>
<path d="M91.6573 1013.91C94.3263 1017.86 100.111 1017.71 102.673 1013.74C104.84 1010.39 110.23 1013.51 108.048 1016.89C102.868 1024.9 91.6003 1024.92 86.2826 1017.06C84.0337 1013.73 89.4238 1010.61 91.6573 1013.91Z" fill="black"/>
<path d="M120.452 1003.55C117.784 1002.92 116.132 1000.24 116.762 997.577C117.392 994.91 120.065 993.258 122.732 993.888C125.4 994.518 127.052 997.191 126.422 999.858C125.792 1002.53 123.119 1004.18 120.452 1003.55Z" fill="black"/>
<path d="M66.1286 1002.23C64.1905 1000.29 64.1905 997.147 66.1286 995.209C68.0667 993.27 71.209 993.27 73.147 995.209C75.0851 997.147 75.0851 1000.29 73.147 1002.23C71.2089 1004.17 68.0667 1004.17 66.1286 1002.23Z" fill="black"/>
<path d="M97.3668 475.592C113.821 462.876 136.592 462.201 153.769 473.921L217.252 517.231C234.43 528.951 242.108 550.399 236.271 570.357L214.697 644.117C208.86 664.075 190.834 678.005 170.048 678.621L93.2325 680.896C72.4467 681.512 53.6285 668.674 46.6198 649.095L20.7183 576.742C13.7096 557.164 20.1046 535.299 36.5588 522.584L97.3668 475.592Z" fill="#C39CFF"/>
<path d="M187.623 542.18C189.238 541.664 189.76 540.091 189.484 538.565C189.403 538.12 189.318 537.677 189.229 537.235C191.906 537.519 194.541 538.116 197.059 539.045C212.332 542.599 224.499 555.786 227.187 571.184C229.878 586.606 221.92 602.546 208.851 610.833C195.733 619.15 178.561 618.104 165.934 609.308C159.378 604.741 154.408 598.54 151.571 591.048C148.295 582.395 147.867 572.48 150.528 563.607C153.287 554.409 159.379 546.098 167.908 541.479C172.602 538.937 177.946 537.426 183.339 537.105C183.584 538.17 183.812 539.241 184.007 540.319C184.285 541.857 186.296 542.604 187.623 542.18ZM157.351 561.535C151.403 575.295 154.922 592.705 166.402 602.472C176.158 610.772 190.659 613.526 202.382 607.879C214.076 602.245 222.385 589.556 221.985 576.464C221.53 561.585 210.182 547.994 195.738 544.642C195.454 544.576 195.204 544.477 194.98 544.358C187.843 541.555 178.819 542.501 172.007 545.803C165.358 549.027 160.262 554.801 157.351 561.535Z" fill="black"/>
<path d="M189.896 538.315C190.188 540.043 189.578 541.816 187.745 542.378C186.239 542.84 183.976 541.969 183.682 540.228C183.475 539.006 183.232 537.793 182.968 536.585C181.118 528.11 177.883 520.002 173.467 512.615C165.957 500.053 155.047 489.574 141.781 482.926C119.421 471.721 90.5462 471.358 69.0113 484.766C58.1974 491.499 49.4699 501.726 47.3013 514.548C47.1594 515.387 46.7823 515.987 46.2812 516.382C45.3569 517.111 44.0061 517.131 42.891 516.603C41.642 516.011 40.692 514.737 40.9849 513.006C45.452 486.599 72.6533 471.426 97.2109 468.676C125.002 465.563 153.322 476.696 171.216 498.218C174.88 502.626 178.112 507.379 180.848 512.396C185.002 520.015 188.007 528.246 189.625 536.807C189.72 537.309 189.811 537.811 189.896 538.315Z" fill="black"/>
<path d="M160.672 604.274C157.354 605.734 151.736 611.161 139.053 614.92C126.369 618.678 125.287 618.11 119.231 618.757C113.175 619.405 108.868 619.32 106.629 618.938C105.559 618.733 104.621 618.504 103.013 617.753" stroke="black" stroke-width="6" stroke-linecap="round" stroke-linejoin="round"/>
<path d="M71.4777 582.987C74.2624 586.854 80.0404 586.53 82.4839 582.491C84.5503 579.076 90.0303 582.031 87.9488 585.472C83.0083 593.637 71.7466 593.991 66.1983 586.286C63.852 583.027 69.1474 579.75 71.4777 582.987Z" fill="black"/>
<path d="M99.9525 571.773C97.2676 571.222 95.5373 568.599 96.0879 565.914C96.6386 563.23 99.2615 561.499 101.946 562.05C104.631 562.601 106.361 565.223 105.811 567.908C105.26 570.593 102.637 572.324 99.9525 571.773Z" fill="black"/>
<path d="M45.6142 572.061C43.6196 570.181 43.5265 567.04 45.4064 565.045C47.2862 563.051 50.4271 562.958 52.4218 564.837C54.4164 566.717 54.5094 569.858 52.6295 571.853C50.7497 573.847 47.6088 573.94 45.6142 572.061Z" fill="black"/>
<path d="M146.272 40.9009C165.342 32.6099 187.582 37.5415 201.361 53.1166L252.28 110.676C266.059 126.251 268.241 148.927 257.686 166.844L218.679 233.058C208.124 250.975 187.232 260.058 166.931 255.556L91.9032 238.919C71.6015 234.417 56.5074 217.355 54.5152 196.656L47.153 120.16C45.1609 99.4604 56.7238 79.8325 75.7943 71.5414L146.272 40.9009Z" fill="#AADEE9"/>
<path d="M217.436 127.594C219.129 127.49 220.02 126.092 220.127 124.545C220.158 124.095 220.184 123.644 220.207 123.193C222.732 124.125 225.14 125.351 227.353 126.869C241.288 134.061 249.849 149.83 248.677 165.416C247.503 181.028 235.878 194.529 221.175 199.356C206.419 204.201 190.028 198.975 179.944 187.35C174.708 181.315 171.411 174.084 170.499 166.126C169.445 156.933 171.463 147.216 176.219 139.267C181.15 131.027 189.094 124.464 198.495 122.078C203.67 120.765 209.221 120.612 214.528 121.622C214.505 122.716 214.463 123.809 214.387 124.903C214.28 126.462 216.046 127.679 217.436 127.594ZM183.342 138.932C174.2 150.812 173.341 168.554 182.075 180.838C189.496 191.277 202.879 197.505 215.629 194.905C228.348 192.312 239.515 182.049 242.339 169.259C245.548 154.723 237.88 138.763 224.7 131.971C224.441 131.838 224.223 131.681 224.034 131.509C217.803 127.042 208.823 125.746 201.409 127.276C194.172 128.77 187.815 133.118 183.342 138.932Z" fill="black"/>
<path d="M220.588 124.404C220.448 126.152 219.421 127.72 217.507 127.816C215.933 127.895 213.953 126.495 214.095 124.735C214.194 123.499 214.256 122.264 214.297 121.028C214.582 112.359 213.434 103.705 210.965 95.46C206.766 81.4395 198.76 68.6051 187.529 58.9058C168.602 42.558 140.698 35.1233 116.532 42.8391C104.397 46.7137 93.4274 54.4882 88.18 66.3858C87.8367 67.1643 87.3239 67.6537 86.741 67.9142C85.6662 68.3942 84.3519 68.0816 83.4004 67.2962C82.3346 66.4164 81.7261 64.9484 82.4348 63.3418C93.2429 38.8375 123.335 30.8004 147.817 34.1579C175.522 37.9576 200.246 55.6972 212.314 80.9508C214.785 86.1224 216.752 91.5231 218.174 97.0582C220.332 105.464 221.227 114.18 220.695 122.877C220.664 123.386 220.629 123.895 220.588 124.404Z" fill="black"/>
<path d="M176.078 181.181C172.503 181.782 165.725 185.666 152.507 186.198C139.29 186.73 138.379 185.914 132.35 185.056C126.32 184.198 122.165 183.06 120.089 182.14C119.101 181.679 118.248 181.227 116.874 180.104" stroke="black" stroke-width="6" stroke-linecap="round" stroke-linejoin="round"/>
<path d="M94.8295 138.666C96.5807 143.098 102.261 144.202 105.621 140.885C108.462 138.081 113.05 142.291 110.188 145.115C103.395 151.82 92.391 149.4 88.9022 140.57C87.427 136.834 93.3643 134.957 94.8295 138.666Z" fill="black"/>
<path d="M125.185 134.78C122.717 133.587 121.683 130.62 122.876 128.152C124.068 125.685 127.035 124.651 129.503 125.843C131.971 127.035 133.005 130.003 131.813 132.47C130.62 134.938 127.653 135.972 125.185 134.78Z" fill="black"/>
<path d="M72.4365 121.73C70.964 119.418 71.6442 116.351 73.9559 114.878C76.2676 113.405 79.3354 114.086 80.8079 116.397C82.2805 118.709 81.6002 121.777 79.2885 123.249C76.9768 124.722 73.9091 124.042 72.4365 121.73Z" fill="black"/>
<path d="M158.175 693.166C140.236 682.649 117.565 684.878 102.019 698.689L44.5659 749.729C29.0196 763.539 24.1344 785.79 32.4652 804.843L63.2526 875.256C71.5834 894.31 91.2354 905.832 111.93 903.796L188.411 896.275C209.106 894.239 226.137 879.11 230.596 858.799L247.077 783.737C251.536 763.426 242.41 742.553 224.471 732.035L158.175 693.166Z" fill="#AADEE9"/>
<path d="M64.6708 762.789C63.0264 762.377 62.4058 760.839 62.5842 759.299C62.6365 758.85 62.6936 758.402 62.7541 757.955C60.1003 758.408 57.5092 759.172 55.0551 760.259C40.0378 764.775 28.7321 778.708 27.0272 794.245C25.3194 809.807 34.273 825.21 47.8421 832.65C61.4606 840.118 78.5317 837.985 90.5756 828.405C96.8286 823.431 101.395 816.928 103.751 809.271C106.471 800.427 106.269 790.505 103.05 781.819C99.7135 772.815 93.1065 764.907 84.3019 760.838C79.4556 758.599 74.027 757.431 68.6241 757.452C68.4468 758.531 68.2875 759.614 68.1613 760.702C67.9812 762.255 66.0224 763.128 64.6708 762.789ZM96.1098 780.184C102.919 793.538 100.511 811.137 89.6747 821.612C80.4654 830.514 66.1675 834.184 54.1101 829.291C42.0821 824.411 32.985 812.275 32.5538 799.184C32.0636 784.306 42.5261 770.022 56.7278 765.761C57.0071 765.677 57.2506 765.563 57.4671 765.429C64.4114 762.179 73.4769 762.551 80.4848 765.414C87.3256 768.209 92.7776 773.648 96.1098 780.184Z" fill="black"/>
<path d="M62.3572 759.259C62.2558 761.009 63.0566 762.704 64.9395 763.062C66.4872 763.357 68.641 762.244 68.7433 760.48C68.8149 759.243 68.9242 758.011 69.0541 756.781C69.9661 748.155 72.2953 739.742 75.8771 731.916C81.9683 718.608 91.6662 706.999 104.126 698.94C125.126 685.356 153.788 681.837 176.66 692.809C188.145 698.319 197.939 707.531 201.497 720.038C201.73 720.857 202.17 721.412 202.712 721.75C203.71 722.374 205.055 722.245 206.106 721.598C207.282 720.874 208.087 719.504 207.607 717.815C200.278 692.055 171.581 679.948 146.87 679.9C118.905 679.846 91.9724 694.01 76.5399 717.359C73.3797 722.141 70.6873 727.219 68.5167 732.506C65.2207 740.534 63.1331 749.043 62.462 757.731C62.4224 758.239 62.3867 758.749 62.3572 759.259Z" fill="black"/>
<path d="M96.6167 820.562C100.075 821.651 106.252 826.431 119.271 828.78C132.289 831.128 133.304 830.445 139.394 830.426C145.484 830.408 149.756 829.852 151.939 829.228C152.981 828.907 153.889 828.577 155.404 827.654" stroke="black" stroke-width="6" stroke-linecap="round" stroke-linejoin="round"/>
<path d="M203.989 811.703C201.719 815.893 195.947 816.308 193.009 812.612C190.525 809.488 185.466 813.117 187.969 816.264C193.908 823.735 205.123 822.652 209.646 814.303C211.558 810.772 205.889 808.196 203.989 811.703Z" fill="black"/>
<path d="M174.319 804.203C176.911 803.315 178.294 800.494 177.406 797.901C176.518 795.308 173.696 793.925 171.103 794.813C168.51 795.701 167.128 798.523 168.016 801.116C168.904 803.709 171.726 805.091 174.319 804.203Z" fill="black"/>
<path d="M228.251 797.573C229.99 795.455 229.683 792.328 227.564 790.589C225.446 788.849 222.319 789.157 220.58 791.275C218.841 793.394 219.148 796.521 221.267 798.26C223.385 799.999 226.512 799.692 228.251 797.573Z" fill="black"/>
<path d="M182.234 262.442C167.202 248.073 144.627 245.018 126.317 254.874L58.6476 291.3C40.337 301.156 30.4555 321.682 34.1712 342.142L47.9028 417.755C51.6185 438.215 68.0862 453.956 88.6932 456.745L164.849 467.051C185.456 469.84 205.515 459.042 214.535 440.305L247.87 371.062C256.89 352.325 252.82 329.911 237.788 315.543L182.234 262.442Z" fill="#7AB0F3"/>
<path d="M75.2018 308.641C73.6967 307.861 73.4472 306.222 73.9758 304.764C74.13 304.339 74.2887 303.917 74.4507 303.496C71.7639 303.325 69.0666 303.471 66.428 303.963C50.7741 304.897 36.562 315.849 31.3223 330.575C26.0742 345.324 31.2371 362.376 42.7262 372.744C54.2572 383.149 71.3604 385.007 85.2878 378.461C92.5187 375.062 98.461 369.786 102.518 362.878C107.203 354.899 109.293 345.198 108.163 336.004C106.991 326.473 102.384 317.255 94.7541 311.267C90.5544 307.971 85.541 305.583 80.2787 304.358C79.8575 305.368 79.453 306.385 79.0793 307.415C78.5463 308.884 76.4389 309.282 75.2018 308.641ZM101.786 332.813C105.334 347.377 98.9356 363.948 85.9765 371.643C74.9635 378.184 60.2049 378.459 49.5996 370.92C39.0201 363.399 32.9646 349.493 35.5618 336.655C38.5137 322.064 51.9863 310.576 66.7878 309.702C67.0789 309.685 67.3422 309.63 67.5836 309.55C75.0899 307.988 83.8259 310.438 89.9852 314.84C95.9978 319.136 100.05 325.685 101.786 332.813Z" fill="black"/>
<path d="M73.7641 304.673C73.262 306.352 73.6506 308.186 75.4003 308.969C76.8383 309.613 79.1906 309.026 79.6966 307.333C80.0514 306.146 80.4418 304.972 80.8515 303.806C83.7269 295.622 87.9323 287.972 93.2212 281.182C102.215 269.636 114.328 260.575 128.309 255.604C151.874 247.225 180.576 250.406 200.304 266.354C210.21 274.362 217.617 285.583 218.197 298.574C218.235 299.424 218.536 300.066 218.985 300.52C219.812 301.356 221.151 301.541 222.322 301.154C223.634 300.72 224.733 299.572 224.655 297.818C223.46 271.063 198.325 252.668 174.29 246.927C147.091 240.43 117.619 248.005 97.2208 267.17C93.0437 271.095 89.2534 275.416 85.923 280.06C80.8656 287.112 76.8732 294.911 74.2181 303.21C74.0623 303.696 73.9102 304.183 73.7641 304.673Z" fill="black"/>
<path d="M92.9736 372.221C96.0877 374.078 100.998 380.153 113.124 385.438C125.251 390.724 126.395 390.293 132.326 391.678C138.257 393.063 142.542 393.508 144.81 393.403C145.898 393.331 146.857 393.219 148.545 392.67" stroke="black" stroke-width="6" stroke-linecap="round" stroke-linejoin="round"/>
<path d="M199.498 388.346C196.323 391.9 190.611 390.973 188.604 386.7C186.906 383.087 181.147 385.453 182.857 389.092C186.915 397.73 198.078 399.261 204.402 392.179C207.077 389.184 202.154 385.371 199.498 388.346Z" fill="black"/>
<path d="M172.354 374.21C175.082 373.944 177.077 371.517 176.811 368.789C176.544 366.061 174.117 364.066 171.389 364.332C168.661 364.598 166.666 367.026 166.932 369.754C167.199 372.481 169.626 374.477 172.354 374.21Z" fill="black"/>
<path d="M226.363 380.186C228.544 378.526 228.965 375.412 227.304 373.231C225.644 371.051 222.53 370.629 220.349 372.29C218.169 373.951 217.747 377.065 219.408 379.245C221.069 381.426 224.183 381.847 226.363 380.186Z" fill="black"/>
</svg>
