<svg width="36" height="36" viewBox="0 0 36 36" fill="none" xmlns="http://www.w3.org/2000/svg">
<path d="M18.1911 4.43066L19.9858 5.13281L33.0168 27.6835L32.3925 30.3365L30.1297 31.585H5.08201L3.05322 29.8684V27.6835L16.2403 5.13281L18.1911 4.43066Z" fill="#63D6D9" stroke="#333333"/>
<path d="M20.595 6.00006C20.3313 5.54544 19.9528 5.16808 19.4973 4.90576C19.0419 4.64344 18.5256 4.50537 18 4.50537C17.4744 4.50537 16.9581 4.64344 16.5027 4.90576C16.0472 5.16808 15.6687 5.54544 15.405 6.00006L3.40501 27.0001C3.14183 27.4559 3.00322 27.9729 3.00308 28.4993C3.00295 29.0256 3.1413 29.5428 3.40424 29.9987C3.66718 30.4547 4.04546 30.8335 4.50109 31.097C4.95671 31.3605 5.47366 31.4995 6.00001 31.5001H30C30.5264 31.4995 31.0433 31.3605 31.4989 31.097C31.9546 30.8335 32.3328 30.4547 32.5958 29.9987C32.8587 29.5428 32.9971 29.0256 32.9969 28.4993C32.9968 27.9729 32.8582 27.4559 32.595 27.0001L20.595 6.00006Z" stroke="#333333" stroke-width="2" stroke-linecap="round" stroke-linejoin="round"/>
<path d="M13.995 20H14.005M21.995 20H22.005M15.995 23C15.995 23 16.795 24 17.995 24C19.295 24 19.995 23 19.995 23" stroke="#333333" stroke-width="2.5" stroke-linecap="round" stroke-linejoin="round"/>
</svg>
